<?xml version="1.0" encoding="utf-8"?>
<!-- Generator: Adobe Illustrator 27.9.0, SVG Export Plug-In . SVG Version: 6.00 Build 0)  -->
<svg version="1.1" id="Layer_1" xmlns="http://www.w3.org/2000/svg" xmlns:xlink="http://www.w3.org/1999/xlink" x="0px" y="0px"
	 viewBox="0 0 360 504" style="enable-background:new 0 0 360 504;" xml:space="preserve">
<style type="text/css">
	.st0{fill:none;stroke:#FFFFFF;stroke-width:5;stroke-miterlimit:10;}
</style>
<path class="st0" d="M31.6,175.3c47.8-74,146.5-95.2,220.4-47.4c59.2,38.2,76.2,117.2,37.9,176.3c-30.6,47.3-93.7,60.9-141.1,30.4
	c-37.9-24.5-48.7-75-24.3-112.9c19.6-30.3,60-39,90.3-19.4c24.2,15.7,31.2,48,15.5,72.2c-12.5,19.4-38.4,25-57.8,12.4
	c-15.5-10-20-30.7-9.9-46.2c8-12.4,24.6-16,37-8c9.9,6.4,12.8,19.7,6.4,29.6"/>
</svg>
